<svg width="32" height="32" viewBox="0 0 256 256" fill="none" xmlns="http://www.w3.org/2000/svg">
<mask id="mask0_106_33" style="mask-type:alpha" maskUnits="userSpaceOnUse" x="13" y="13" width="230" height="230">
<path d="M49.5156 13.0002C49.0251 13.0002 48.5363 13.0604 48.0604 13.1793L17.5448 20.8082C14.8738 21.476 13 23.8759 13 26.6291V237C13 240.314 15.6863 243 19 243H237C240.314 243 243 240.314 243 237V26.6291C243 23.8759 241.126 21.476 238.455 20.8082L207.939 13.1791C207.463 13.0602 206.974 13 206.484 13L49.5156 13.0002Z" fill="black"/>
</mask>
<g mask="url(#mask0_106_33)">
<path d="M55 17C55 14.7909 56.7909 13 59 13H197C199.209 13 201 14.7909 201 17V153C201 155.209 199.209 157 197 157H59C56.7909 157 55 155.209 55 153V17Z" fill="black"/>
<path d="M48.9549 171.407C49.5895 169.945 51.0308 169 52.624 169H203.376C204.969 169 206.411 169.945 207.045 171.407L232.571 237.407C233.718 240.048 231.782 243 228.902 243H27.0976C24.2178 243 22.2816 240.048 23.4286 237.407L48.9549 171.407Z" fill="black" fill-opacity="0.7"/>
<path d="M43.6978 155.733C43.8973 155.249 44 154.731 44 154.207V18.314C44 15.6531 41.4504 13.734 38.8934 14.4701L15.8934 21.667C14.1801 22.1603 13 23.728 13 25.5109V212.813C13 217.194 19.0274 218.388 20.6978 214.339L43.6978 155.733Z" fill="black" fill-opacity="0.6"/>
<path d="M212.302 155.733C212.103 155.249 212 154.731 212 154.207V18.314C212 15.6531 214.55 13.734 217.107 14.4701L240.107 21.667C241.82 22.1603 243 23.728 243 25.5109V212.813C243 217.194 236.973 218.388 235.302 214.339L212.302 155.733Z" fill="black" fill-opacity="0.6"/>
</g>
</svg>
